<?xml version="1.0" encoding="UTF-8"?>
<svg id="Layer_2" data-name="Layer 2" xmlns="http://www.w3.org/2000/svg" viewBox="0 0 146 58">
  <defs>
    <style>
      .cls-1 {
        fill: #030303;
      }

      .cls-1, .cls-2, .cls-3, .cls-4, .cls-5, .cls-6, .cls-7, .cls-8 {
        stroke-width: 0px;
      }

      .cls-3 {
        fill: #cbeffe;
      }

      .cls-4 {
        fill: #cbeefd;
      }

      .cls-5 {
        fill: #caeefd;
      }

      .cls-6 {
        fill: #caedfc;
      }

      .cls-7 {
        fill: #caeefc;
      }

      .cls-8 {
        fill: #08090a;
      }
    </style>
  </defs>
  <g id="Quank_Image" data-name="Quank Image">
    <g>
      <path class="cls-2" d="M45.64,18.77q6.4-2.31,11.92-.06c4.31-2.75,8.5-1.79,12.4.75,7.81-3.66,15.48-2.75,22.87-.77,8.13-2.1,15.91-3,23.67,1.45,1.54-3.64,2.89-7.36,4.65-10.87,3.22-6.43,10.94-8.25,15.88-3.82,3.76,3.37,3.68,7.54,2.32,11.07,1.76,3.42,4.01,6.15,4.43,9.13.37,2.65-1.29,5.59-2.38,9.61,1.61,3.73,2.2,8.64-2.72,12.51-4.36,3.43-8.66,2.55-12.37-.36-9.13,3.72-17.93,3.28-27.16.87-4.8,2.97-10.6,1.08-16.1,1.67-6.34.69-12.71-1.44-19.1,0-1.43.32-3.03.29-4.47,0-3.58-.71-6.11-.04-8.24,3.41-1.7,2.75-5.19,3.47-8.42,3.6-3.82.15-7.66.1-11.48.02-3.48-.08-6.39-1.46-8.82-4-.83-.87-2.03-1.78-3.15-1.92-11.16-1.33-16.31-10.05-15.34-20.74.92-10.16,4.81-18.88,14.17-24.39,12.71-7.48,25.89.39,27.02,12,.03.29.26.56.4.84ZM90.04,41.12c3.93,2.83,5.33,2.51,7.46-1.86,1.01-2.09,1.64-4.38,2.8-6.37,1.13-1.92,2.55-4.07,5.59-1.8-.42,1.17-.86,2.21-1.16,3.29-.67,2.44-3.57,5.36-1.07,7.23,2.04,1.52,5.61,1,8.5,1.36.31.04.79-.04.93-.25.77-1.13,1.9-2.28,2.01-3.51.06-.65-1.62-1.61-2.65-2.16-.73-.38-1.7-.28-2.86-.44.84-1.97,1.54-3.47,2.12-5.01.78-2.07,1.58-4.57-.49-5.97-1.58-1.07-3.95-1.09-5.99-1.33-1.19-.14-2.68.74-3.6.28-2.96-1.47-4.4-.04-5.44,2.36-1.45,3.35-2.72,6.79-4.22,10.11-.26.57-1.33.77-2.02,1.14-1.52-.63-3.03-1.25-4.62-1.9,1-2.52,2.16-5.09,3.02-7.76.36-1.12.57-2.84-.03-3.57-.54-.66-2.27-.41-3.48-.43-.87-.01-1.82.48-2.62.28-6.68-1.63-12.08,1.71-13.58,8.51-1.59,7.17,2.97,11.47,9.96,9.24,1.27-.4,2.04-.5,3.43-.08,2.65.79,5.82,1.82,8.01-1.35ZM30.48,40.16c4.92-4.73,7.59-10.71,8.09-17.59.31-4.34-.66-8.39-4.58-10.95-3.86-2.53-7.89-2.06-11.77.1-7.96,4.44-10.76,11.75-11.32,20.35-.52,7.96,5.1,13.73,13.18,11.58.25-.07.6.21.42.14,1.89,2.2,3.27,5.37,5.11,5.66,4.86.77,9.92.45,14.87.15.89-.05,2.29-2.05,2.29-3.15,0-.82-1.82-2.19-2.95-2.33-2.79-.34-5.66-.25-8.48-.08-2.79.17-4.39-.89-4.86-3.88ZM124.97,33.23c2.14,3.19,3.61,5.77,5.49,8,.73.86,2.69,1.58,3.61,1.21,1.75-.72,1.92-2.51.86-4.2-1.19-1.9-2.39-3.81-3.6-5.74,1.68-1.32,3.01-2.3,4.28-3.36,1.41-1.19,2.28-2.88.79-4.22-.73-.65-2.68-.34-3.91.06-1.7.55-3.25,1.6-5.49,2.76,2.18-5.11,3.94-9.2,5.66-13.31.69-1.64,1.02-3.66-1.07-4.11-1.19-.25-2.91.92-4.04,1.87-.79.67-1.01,2.03-1.45,3.1-3.15,7.66-6.14,15.38-9.53,22.93-.92,2.06-1.27,3.57.77,4.54,2.01.95,3.53-.44,4.43-2.16,1.06-2.04,1.86-4.22,3.21-7.36ZM50.66,36.4c1.15-2.85,2.3-5.55,3.33-8.29.54-1.43.96-3.3-.94-3.76-1.11-.27-2.58.77-3.83,1.35-.38.18-.63.78-.81,1.23-1.24,3.08-2.59,6.13-3.62,9.29-1.28,3.9.62,6.82,4.71,6.68,4.5-.16,8.97-.38,13.45.09.49.05,1.21.16,1.45-.1,1.04-1.09,2.49-2.21,2.75-3.52.37-1.83-1.27-2.4-2.97-2.39-.74,0-1.48-.19-2.51-.33,1.16-2.8,2.2-5.23,3.19-7.69.7-1.73,1.51-3.74-.78-4.73-2.08-.9-3.48.65-4.32,2.38-1.16,2.39-2.06,4.89-3.15,7.31-1.06,2.35-2.64,3.74-5.95,2.48Z"/>
      <path class="cls-3" d="M30.48,40.16c.47,2.99,2.08,4.05,4.86,3.88,2.82-.17,5.69-.26,8.48.08,1.13.14,2.95,1.52,2.95,2.33,0,1.1-1.4,3.1-2.29,3.15-4.96.29-10.02.61-14.87-.15-1.84-.29-3.22-3.46-5.11-5.66.18.07-.17-.21-.42-.14-8.08,2.15-13.69-3.61-13.18-11.58.56-8.6,3.36-15.92,11.32-20.35,3.88-2.16,7.9-2.62,11.77-.1,3.92,2.56,4.89,6.62,4.58,10.95-.5,6.87-3.17,12.85-8.09,17.59ZM27.5,34.28c2.96-3.95,4.78-8.15,4.53-13.02-.25-4.87-3.93-6.73-7.91-4.09-4.23,2.81-7.97,12.7-6.48,17.4.57,1.78,1.22,3.78,3.97,3.01-1.13-2.58-3.42-5.27-.06-7.16,3.3-1.86,3.63,2.39,5.94,3.86Z"/>
      <path class="cls-7" d="M124.97,33.23c-1.35,3.14-2.15,5.31-3.21,7.36-.89,1.72-2.41,3.11-4.43,2.16-2.04-.96-1.69-2.48-.77-4.54,3.39-7.55,6.38-15.28,9.53-22.93.44-1.07.66-2.44,1.45-3.1,1.13-.95,2.85-2.13,4.04-1.87,2.09.44,1.76,2.46,1.07,4.11-1.72,4.11-3.48,8.21-5.66,13.31,2.24-1.16,3.79-2.21,5.49-2.76,1.23-.4,3.19-.71,3.91-.06,1.49,1.35.62,3.04-.79,4.22-1.26,1.06-2.59,2.04-4.28,3.36,1.22,1.94,2.41,3.84,3.6,5.74,1.06,1.69.89,3.48-.86,4.2-.92.38-2.88-.34-3.61-1.21-1.89-2.22-3.35-4.81-5.49-8Z"/>
      <path class="cls-4" d="M90.04,41.12c-2.18,3.17-5.35,2.14-8.01,1.35-1.39-.41-2.16-.32-3.43.08-7,2.23-11.55-2.07-9.96-9.24,1.51-6.8,6.91-10.15,13.58-8.51.8.2,1.74-.29,2.62-.28,1.21.01,2.94-.23,3.48.43.6.73.39,2.45.03,3.57-.86,2.67-2.02,5.24-3.02,7.76,1.58.65,3.1,1.28,4.62,1.9.03.98.07,1.95.1,2.93ZM81.56,29.99c-3.85-1-6.59.28-7.22,3.29-.22,1.06.4,3.25.9,3.33,1.24.2,3.17-.1,3.82-.96,1.2-1.58,1.69-3.7,2.5-5.66Z"/>
      <path class="cls-6" d="M50.66,36.4c3.31,1.26,4.89-.13,5.95-2.48,1.09-2.42,2-4.92,3.15-7.31.84-1.73,2.24-3.28,4.32-2.38,2.29.99,1.48,3,.78,4.73-.99,2.45-2.03,4.89-3.19,7.69,1.04.14,1.78.33,2.51.33,1.7,0,3.34.56,2.97,2.39-.27,1.32-1.72,2.43-2.75,3.52-.25.26-.96.15-1.45.1-4.48-.47-8.95-.25-13.45-.09-4.09.15-5.99-2.78-4.71-6.68,1.03-3.15,2.38-6.2,3.62-9.29.18-.46.43-1.05.81-1.23,1.25-.58,2.71-1.61,3.83-1.35,1.9.45,1.48,2.32.94,3.76-1.03,2.74-2.17,5.44-3.33,8.29Z"/>
      <path class="cls-5" d="M90.04,41.12c-.03-.98-.07-1.95-.1-2.93.7-.37,1.77-.57,2.02-1.14,1.51-3.32,2.77-6.76,4.22-10.11,1.04-2.4,2.48-3.82,5.44-2.36.92.46,2.41-.42,3.6-.28,2.05.23,4.41.26,5.99,1.33,2.07,1.4,1.27,3.9.49,5.97-.58,1.54-1.28,3.04-2.12,5.01,1.16.16,2.13.06,2.86.44,1.04.54,2.71,1.5,2.65,2.16-.11,1.22-1.24,2.37-2.01,3.51-.14.2-.63.28-.93.25-2.89-.35-6.47.17-8.5-1.36-2.5-1.87.39-4.79,1.07-7.23.3-1.08.74-2.12,1.16-3.29-3.03-2.26-4.46-.12-5.59,1.8-1.16,1.99-1.79,4.28-2.8,6.37-2.13,4.38-3.53,4.7-7.46,1.86Z"/>
      <path class="cls-1" d="M27.5,34.28c-2.32-1.46-2.65-5.71-5.94-3.86-3.36,1.89-1.07,4.59.06,7.16-2.74.77-3.4-1.23-3.97-3.01-1.5-4.7,2.25-14.59,6.48-17.4,3.98-2.64,7.66-.78,7.91,4.09.24,4.87-1.57,9.07-4.53,13.02Z"/>
      <path class="cls-8" d="M81.56,29.99c-.81,1.96-1.3,4.09-2.5,5.66-.66.86-2.59,1.16-3.82.96-.5-.08-1.12-2.27-.9-3.33.63-3.01,3.37-4.29,7.22-3.29Z"/>
    </g>
  </g>
</svg>