<?xml version="1.0" encoding="UTF-8"?>
<svg id="Layer_2" data-name="Layer 2" xmlns="http://www.w3.org/2000/svg" viewBox="0 0 211 68">
  <defs>
    <style>
      .cls-1 {
        fill: #020202;
      }

      .cls-1, .cls-2, .cls-3, .cls-4, .cls-5, .cls-6, .cls-7 {
        stroke-width: 0px;
      }

      .cls-3 {
        fill: #cbeffe;
      }

      .cls-4 {
        fill: #0a0c0c;
      }

      .cls-5 {
        fill: #caeefd;
      }

      .cls-6 {
        fill: #caedfc;
      }

      .cls-7 {
        fill: #0a0b0c;
      }
    </style>
  </defs>
  <g id="Showfests_Image" data-name="Showfests Image">
    <g>
      <path class="cls-2" d="M48.77,7.52c6.01-4.93,9.99-5.72,14.28-2.86,4.27,2.85,4.94,6.2,2.68,14.01.88.62,1.82,1.28,2.81,1.98,5.68-3.43,11.55-5.13,17.93-2.03.15.07.36.24.44.19,4.61-2.74,9.63-.32,14.3-1.16,3.32-.59,6.21-.68,8.68.79,3.39-.6,6.42-1.13,9.91-1.75,1.09-1.99,2.36-4.48,3.78-6.88,4.29-7.28,15.9-8.24,21.48-5.62,3.43,1.61,5.11,4.7,4.95,8.56-.06,1.48-.47,2.94-.75,4.62,1.5.69,3.09,1.42,4.62,2.12,7.03-7.85,12.48-6.3,17.79-1.06.79-.59,1.82-1.08,2.45-1.89,5.42-6.82,10.83-7.38,17.06-1.88,2.81,0,5.44-.35,7.93.08,3.45.6,5.15,3.19,6.03,6.51.58,2.18,1.33,4.39,2.44,6.34,5.87,10.27-.19,21.82-11.98,22.34-6.41.28-12.93.67-19.24-.15-4.76-.62-9.19-.47-13.9.02-6.88.72-13.88.28-20.83.15-4.3-.08-8.13-1.57-11.46-5.18-2.01,4.75-3.78,9.33-5.89,13.76-1.04,2.18-2.39,4.44-4.17,6.01-3.48,3.09-7.91,3.17-11.56.82-3.36-2.16-4.69-5.96-3.61-10.49.34-1.44.85-2.85,1.35-4.52-4.18-.73-8.16-2.58-12.44-.48-.65.32-1.8.26-2.43-.12-3.6-2.18-7.1-1.6-10.7-.04-.86.38-2.02.44-2.95.24-6.25-1.39-12.47-.07-18.7.03-.99.02-2.28.21-2.93-.3-3.91-3.1-7.56.09-11.26.46-1.21.12-2.36,2.03-3.32,3.28-6.8,8.88-20.09,11.31-29.06,5.24-8.43-5.7-11.19-17.19-6.18-26.62,1.14-2.15,1.79-3.84,1.04-6.42-1.51-5.23,1.35-10.05,6.63-11.67,2.49-.76,4.24-2.05,5.92-4.04C26.81,1.86,38.86.95,48.77,7.52ZM24.84,29.15c-1.55-.29-3.24-1.14-4.63-.79-5.76,1.47-9.91,8.66-9.25,15.49.55,5.76,5.12,10.53,11.05,11.1,6.08.59,11.19-1.48,14.65-6.67,3.39-5.09,3.08-10.4.06-15.55-1.31-2.23-2.99-4.24-4.83-6.82,2.3,0,3.98.2,5.61-.04,5.34-.8,8.73-4.53,8.25-8.89-.46-4.16-4.22-6.94-9.46-6.99-6.66-.07-11.22,3.06-14.15,9.83-1.73.11-3.72-.2-5.29.47-1.22.52-1.92,2.27-2.85,3.47,1.11.74,2.12,1.77,3.34,2.14,1.22.37,2.65.2,3.97.06,2.21-.23,3.44.73,3.93,2.82-.13.11-.26.23-.38.35ZM107.8,32.41c-.4-.91-.73-1.32-.73-1.73,0-.64.42-1.31.32-1.9-.27-1.47-.28-3.43-1.22-4.25-1.65-1.44-3.52-.27-4.76,1.2-1.89,2.24-3.57,4.65-6,7.85.24-2.58.41-4.01.5-5.45.11-1.66.43-3.61-1.82-4.02-2.3-.42-3.49,1.25-3.69,3.17-.42,3.97-.74,7.98-.58,11.95.05,1.28,1.55,3.06,2.8,3.55.91.36,2.79-.75,3.73-1.7,1.59-1.61,2.78-3.62,4.41-5.84.16.95.35,1.39.29,1.8-.34,2.48-.21,4.88,2.56,5.78,2.5.82,3.94-1.07,5.34-2.79,2.92-3.6,5.86-7.18,8.74-10.69,1.65.4,3.01.73,4.52,1.09-2.88,7.05-5.65,13.81-8.4,20.57-.75,1.84-1.67,3.66-2.11,5.58-.21.9.25,2.49.93,2.91.72.44,2.44.25,3.06-.35,1.13-1.1,1.94-2.63,2.57-4.12,3.49-8.24,6.88-16.52,10.28-24.73h6.35c-.15,2.44-.5,4.59-.35,6.71.2,2.95,1.91,5.22,4.83,5.6,3.6.46,7.32.5,10.93.14,1.08-.11,2.64-2.09,2.78-3.34.23-2.12-1.72-2.44-3.53-2.42-2.71.03-5.42,0-8.14,0,3.83-1.34,8.76.17,10.49-5.09.76-2.31.3-4.74-1.86-6.3-4.44-3.21-8.5-1.39-12.68,1.49-.3-4.55-4.03-2.38-6.13-3.44,2.47-6.33,2.48-6.27,8.67-7.75,1.04-.25,2.32-.94,2.79-1.81.85-1.57.73-3.28-1.43-3.99-5-1.64-10.66.73-13.08,5.61-1.32,2.65-2.4,5.41-3.61,8.17-3.38.22-7.03-.47-9.6.89-2.82,1.48-4.64,4.84-7.13,7.64ZM55.27,24.49c1.61-3.75,3.14-6.88,4.26-10.16.39-1.15-.26-2.65-.44-3.99-1.42.5-3.01.75-4.19,1.59-.83.59-1.15,1.96-1.6,3.02-3.12,7.49-6.22,14.99-9.33,22.49-.32.76-.86,1.53-.88,2.3-.02.9.15,2.29.72,2.59.86.46,2.43.6,3.13.09,1.13-.83,1.93-2.21,2.61-3.5,1.07-2.05,1.78-4.3,2.92-6.3,1.1-1.94,2.62-3.48,5.45-1.84-.42,1.3-.83,2.51-1.22,3.73-.76,2.41-3.61,5.32-1.06,7.18,2.05,1.5,5.63.92,8.53,1.26.16.02.4,0,.48-.1.88-1.08,2.26-2.08,2.49-3.29.32-1.74-1.09-2.57-2.86-2.57-.78,0-1.56-.15-2.63-.26.85-2.1,1.68-3.9,2.31-5.77,1.43-4.21-.42-6.88-4.81-6.94-1.12-.02-2.24.26-3.88.47ZM76.95,43c7.17.7,10.72-5.98,10.77-11.04.05-4.7-3.52-8.02-8.28-7.97-5.86.06-10.97,5.2-11.1,11.19-.12,5.14,2.84,7.82,8.62,7.82ZM175.6,31.52c-.73,1.83-1.79,4.27-2.69,6.77-.82,2.28-.11,4.15,2.36,4.52,2.27.34,4.71.39,6.94-.09,1.09-.24,2.43-1.91,2.56-3.05.09-.78-1.64-1.92-2.73-2.61-.61-.39-1.59-.19-2.66-.28,1.06-2.31,2.02-4.4,2.98-6.49.22.25.44.49.66.74,1.71-1.24,3.79-2.22,4.94-3.86.39-.56-1.55-2.75-1.89-3.31-.55-2.43-.4-4.79-1.35-5.36-2.39-1.46-3.93.34-4.93,2.53-.41.89-.9,1.75-1.35,2.63-2.09.67-4,1.68-5.04,3.26-.4.61,1.15,2.51,2.2,4.61ZM162.63,31.07c2.17,4.9,1.75,5.72-2.72,5.92-.99.04-2.23-.34-2.93.12-1.24.82-2.81,2.01-3.04,3.27-.38,2.04,1.42,2.67,3.29,2.63,1.32-.03,2.65-.05,3.98,0,3.4.14,6.21-.92,7.95-4.01,1.82-3.22.45-5.98-1.16-8.83-1.1-1.94-1.74-4.14-2.63-6.2-.42-.97-.99-2.7-1.39-2.67-1.14.08-2.68.59-3.25,1.47-1.54,2.33-2.79,4.87-3.86,7.46-.35.84-.09,2.7.45,2.96.93.45,2.35.23,3.45-.1.67-.21,1.11-1.16,1.87-2.01ZM195.62,31.2c2.34,4.74,1.88,5.6-3.01,5.8-1,.04-2.31-.31-2.92.19-1.14.93-1.88,2.36-2.79,3.59,1.1.74,2.12,1.73,3.33,2.15,1.04.36,2.31.03,3.47.09,3.57.19,6.63-.7,8.48-4.04,1.93-3.47.23-6.32-1.48-9.29-1.03-1.79-1.51-3.9-2.32-5.83-.41-.96-.87-2.44-1.57-2.6-.84-.2-2.39.47-2.87,1.24-1.59,2.51-2.97,5.18-4.13,7.92-.33.79.05,2.46.7,2.94.66.49,2.15.28,3.07-.1.82-.34,1.37-1.34,2.05-2.06Z"/>
      <path class="cls-3" d="M107.8,32.41c2.49-2.8,4.31-6.16,7.13-7.64,2.58-1.35,6.23-.66,9.6-.89,1.21-2.76,2.3-5.52,3.61-8.17,2.42-4.88,8.08-7.25,13.08-5.61,2.16.71,2.28,2.41,1.43,3.99-.47.87-1.75,1.56-2.79,1.81-6.19,1.47-6.21,1.42-8.67,7.75,2.1,1.05,5.83-1.12,6.13,3.44,4.18-2.87,8.24-4.7,12.68-1.49,2.15,1.56,2.62,3.99,1.86,6.3-1.73,5.27-6.66,3.75-10.49,5.09,2.71,0,5.43.03,8.14,0,1.81-.02,3.76.29,3.53,2.42-.14,1.25-1.7,3.24-2.78,3.34-3.61.36-7.32.32-10.93-.14-2.92-.37-4.63-2.65-4.83-5.6-.14-2.12.21-4.27.35-6.71h-6.35c-3.4,8.22-6.79,16.5-10.28,24.73-.63,1.49-1.44,3.01-2.57,4.12-.61.6-2.34.79-3.06.35-.68-.42-1.13-2.01-.93-2.91.44-1.92,1.36-3.73,2.11-5.58,2.76-6.76,5.52-13.52,8.4-20.57-1.51-.37-2.87-.69-4.52-1.09-2.88,3.51-5.82,7.09-8.74,10.69-1.39,1.72-2.83,3.61-5.34,2.79-2.77-.91-2.9-3.31-2.56-5.78.06-.41-.13-.85-.29-1.8-1.63,2.21-2.82,4.22-4.41,5.84-.94.95-2.82,2.06-3.73,1.7-1.25-.49-2.75-2.27-2.8-3.55-.17-3.97.16-7.98.58-11.95.2-1.93,1.39-3.59,3.69-3.17,2.25.41,1.92,2.36,1.82,4.02-.09,1.44-.26,2.87-.5,5.45,2.43-3.2,4.12-5.61,6-7.85,1.23-1.47,3.1-2.63,4.76-1.2.94.82.96,2.78,1.22,4.25.11.59-.32,1.27-.32,1.9,0,.41.33.82.73,1.73Z"/>
      <path class="cls-3" d="M25.22,28.79c-.49-2.09-1.72-3.05-3.93-2.82-1.32.14-2.75.31-3.97-.06-1.22-.37-2.24-1.4-3.34-2.14.93-1.2,1.63-2.95,2.85-3.47,1.57-.67,3.56-.36,5.29-.47,2.94-6.77,7.49-9.9,14.15-9.83,5.24.05,9,2.83,9.46,6.99.48,4.36-2.9,8.09-8.25,8.89-1.62.24-3.31.04-5.61.04,1.84,2.57,3.52,4.59,4.83,6.82,3.02,5.15,3.33,10.45-.06,15.55-3.45,5.19-8.57,7.25-14.65,6.67-5.92-.57-10.49-5.34-11.05-11.1-.65-6.83,3.49-14.02,9.25-15.49,1.39-.35,3.08.49,4.63.79.51,2.25-.46,3.69-2.26,5.02-1.68,1.25-3.39,2.75-4.44,4.52-1.84,3.1-1.1,6.42,1.37,8.6,2.54,2.24,6.21,2.33,9.18.23,3.83-2.71,4.93-7.77,2.22-11.93-1.6-2.46-3.77-4.54-5.69-6.79ZM28.4,20.19c4.35-.83,8.35,1.48,11.31-2.29-3.9-2.99-6.76-2.55-11.31,2.29Z"/>
      <path class="cls-5" d="M55.27,24.49c1.65-.21,2.77-.48,3.88-.47,4.38.06,6.24,2.73,4.81,6.94-.63,1.87-1.46,3.67-2.31,5.77,1.07.11,1.85.26,2.63.26,1.77,0,3.19.84,2.86,2.57-.23,1.21-1.6,2.21-2.49,3.29-.08.1-.32.12-.48.1-2.9-.33-6.48.24-8.53-1.26-2.55-1.87.29-4.77,1.06-7.18.39-1.22.79-2.44,1.22-3.73-2.83-1.64-4.35-.1-5.45,1.84-1.14,2.01-1.85,4.25-2.92,6.3-.68,1.29-1.48,2.68-2.61,3.5-.7.51-2.27.37-3.13-.09-.56-.3-.74-1.7-.72-2.59.02-.77.56-1.53.88-2.3,3.11-7.5,6.2-15,9.33-22.49.44-1.06.77-2.43,1.6-3.02,1.17-.84,2.77-1.09,4.19-1.59.18,1.34.83,2.84.44,3.99-1.11,3.28-2.65,6.41-4.26,10.16Z"/>
      <path class="cls-6" d="M76.95,43c-5.78,0-8.74-2.68-8.62-7.82.14-5.98,5.24-11.12,11.1-11.19,4.77-.05,8.33,3.27,8.28,7.97-.05,5.06-3.6,11.74-10.77,11.04ZM76.55,37.03c3.27-.05,5.78-2.29,5.24-4.33-.28-1.08-1.72-2.37-2.84-2.6-2.2-.44-5.22,2.6-4.62,4.6.32,1.09,1.75,1.86,2.22,2.32Z"/>
      <path class="cls-5" d="M175.6,31.52c-1.06-2.1-2.61-4-2.2-4.61,1.04-1.58,2.95-2.59,5.04-3.26.45-.87.94-1.73,1.35-2.63,1-2.19,2.54-3.99,4.93-2.53.94.58.8,2.94,1.35,5.36.34.56,2.28,2.75,1.89,3.31-1.15,1.64-3.22,2.62-4.94,3.86-.22-.25-.44-.49-.66-.74-.96,2.09-1.92,4.17-2.98,6.49,1.07.09,2.05-.1,2.66.28,1.09.69,2.82,1.83,2.73,2.61-.13,1.14-1.47,2.81-2.56,3.05-2.22.48-4.66.43-6.94.09-2.47-.37-3.18-2.24-2.36-4.52.9-2.5,1.95-4.94,2.69-6.77Z"/>
      <path class="cls-6" d="M162.63,31.07c-.76.86-1.2,1.81-1.87,2.01-1.09.34-2.52.56-3.45.1-.54-.26-.79-2.12-.45-2.96,1.07-2.58,2.32-5.13,3.86-7.46.58-.87,2.11-1.39,3.25-1.47.41-.03.98,1.71,1.39,2.67.89,2.06,1.53,4.26,2.63,6.2,1.61,2.85,2.98,5.61,1.16,8.83-1.75,3.09-4.55,4.14-7.95,4.01-1.32-.05-2.65-.04-3.98,0-1.88.04-3.68-.58-3.29-2.63.23-1.26,1.8-2.45,3.04-3.27.7-.46,1.94-.08,2.93-.12,4.47-.2,4.89-1.02,2.72-5.92Z"/>
      <path class="cls-5" d="M195.62,31.2c-.68.72-1.23,1.72-2.05,2.06-.93.38-2.41.59-3.07.1-.64-.48-1.03-2.15-.7-2.94,1.15-2.74,2.54-5.41,4.13-7.92.49-.77,2.03-1.44,2.87-1.24.7.17,1.16,1.64,1.57,2.6.82,1.93,1.29,4.03,2.32,5.83,1.71,2.97,3.41,5.82,1.48,9.29-1.85,3.34-4.91,4.23-8.48,4.04-1.16-.06-2.43.28-3.47-.09-1.21-.42-2.23-1.41-3.33-2.15.91-1.22,1.65-2.65,2.79-3.59.62-.5,1.93-.15,2.92-.19,4.9-.2,5.35-1.06,3.01-5.8Z"/>
      <path class="cls-1" d="M25.22,28.79c1.92,2.25,4.09,4.33,5.69,6.79,2.7,4.15,1.6,9.21-2.22,11.93-2.97,2.1-6.64,2.01-9.18-.23-2.47-2.17-3.21-5.49-1.37-8.6,1.05-1.77,2.75-3.27,4.44-4.52,1.8-1.34,2.77-2.78,2.26-5.02.12-.12.25-.24.38-.35Z"/>
      <path class="cls-7" d="M28.4,20.19c4.55-4.84,7.41-5.28,11.31-2.29-2.96,3.78-6.96,1.46-11.31,2.29Z"/>
      <path class="cls-4" d="M76.55,37.03c-.47-.46-1.9-1.23-2.22-2.32-.59-2,2.42-5.04,4.62-4.6,1.11.22,2.56,1.52,2.84,2.6.54,2.04-1.98,4.27-5.24,4.33Z"/>
    </g>
  </g>
</svg>