<?xml version="1.0" encoding="UTF-8"?>
<svg id="Layer_2" data-name="Layer 2" xmlns="http://www.w3.org/2000/svg" viewBox="0 0 167 58">
  <defs>
    <style>
      .cls-1, .cls-2, .cls-3, .cls-4, .cls-5, .cls-6, .cls-7 {
        stroke-width: 0px;
      }

      .cls-2 {
        fill: #cbeffe;
      }

      .cls-3 {
        fill: #caeefd;
      }

      .cls-4 {
        fill: #c9edfb;
      }

      .cls-5 {
        fill: #08090a;
      }

      .cls-6 {
        fill: #0c0e0f;
      }

      .cls-7 {
        fill: #c9edfc;
      }
    </style>
  </defs>
  <g id="Contact_Image" data-name="Contact Image">
    <g>
      <path class="cls-1" d="M50.62,16.25c3.48,1.31,6.83,2.57,10.4,3.92,2.99-2.29,6.38-3.37,10.79-2.85,3.68.43,7.39-.32,11.11,1.31,2.1.92,3.63-1.25,4.97-3.02,3.59-4.73,9.12-6.01,13.62-3.03,1.84,1.22,3.15,3.23,4.77,4.95,5.73-.09,11.79-1.68,17.66,1.17.84.41,2.2.06,3.21-.28,4.03-1.34,8-2.13,12.15-.36,2.36,1.01,3.91-.12,5.39-2.12,3.46-4.69,7.96-6.03,12.64-4.01,1.19.51,2.7,1.2,3.2,2.23,1.72,3.53,3.43,7.14,4.45,10.91,1.1,4.04-1.01,7.36-3.82,10.03,2.02,9.71-2.12,14.99-11.89,14.87-8.22-.11-16.44-.85-24.66-.98-4.58-.08-9.18.79-13.76.74-7.22-.08-14.43-.35-21.65.24-3.74.31-7.54.23-11.29,0-3.09-.18-6.15-.84-10.13-1.42-2.51,1.46-6.06,2.11-9.93.39-2.21-.98-7.56.87-9.01,3-1.92,2.81-4.59,4.66-7.8,4.8-6.64.29-13.41.8-19.93-.16-10.5-1.54-16.22-10.06-15.12-21.08.29-2.94.47-5.46-1.04-8.42-2.83-5.54.62-11.92,7-13.45,2.89-.69,5.05-2.01,7.15-3.96,5.11-4.74,11.2-7.33,18.2-6.46,7.58.94,11.25,4.87,13.35,13.05ZM18.93,19.82c-3.02.59-6.79-1.05-7.85,3.05-.88,3.37,2.57,2.81,3.54,3.23-.61,4.97-1.66,9.38-1.57,13.76.12,5.67,4.32,9.78,9.8,10.07,5.47.29,10.97.1,16.45.04,2.28-.02,3.99-1.13,3.9-3.56-.1-2.56-2.22-2.42-4.09-2.41-4.32.02-8.65.09-12.96-.02-4.76-.12-6.72-2.04-6.65-6.76.06-3.99,1.06-7.8,3.43-11.21,2.81,0,5.52.34,8.1-.09,3.2-.53,6.7-1.04,9.33-2.71,4.93-3.12,4.03-10.21-1.42-12.28-2.16-.82-4.89-.8-7.23-.4-5.58.97-9.14,5.08-12.78,9.29ZM117.24,36.59c1.03-2.62,2.2-5.19,3-7.87.37-1.24.37-2.86-.15-3.99-.22-.46-2.26-.1-3.47-.06-.73.03-1.51.38-2.18.23-7.59-1.68-13.82,2.99-14.09,10.62-.18,5.01,2.52,7.88,7.57,7.39,2.94-.29,5.79-.73,8.7.07.46.13.99,0,1.49.02,2.5.14,4.51-.84,4.57-3.42.07-2.82-2.42-2.57-4.4-2.66-.31-.01-.62-.2-1.03-.34ZM75.09,30.69c-.97,2.55-1.75,4.52-2.47,6.52-1.57,4.35-.63,5.66,4.09,5.79.67.02,1.33.01,2,0,3.98-.06,5.67-1.05,5.57-3.38-.16-3.41-2.99-2.31-4.88-2.79-.16-.04-.3-.14-.74-.35.7-1.65,1.45-3.29,2.09-4.98.78-2.08,1.51-4.59-.6-5.94-1.61-1.04-3.97-1.01-6.02-1.23-1.19-.13-2.63.64-3.59.2-2.99-1.38-4.39.11-5.39,2.51-1.54,3.68-2.93,7.41-4.47,11.09-.74,1.78-1.6,3.66.75,4.65,2.03.86,3.53-.44,4.41-2.24,1.16-2.38,2.09-4.88,3.28-7.25,1.06-2.11,2.4-3.97,5.97-2.61ZM48.07,43c7.05.68,10.66-6.04,10.65-11.16-.01-4.69-3.63-7.96-8.41-7.84-5.87.14-10.92,5.35-10.98,11.31-.05,5.08,2.96,7.73,8.74,7.7ZM95.42,30.1c2.66-.09,5.47.06,5.62-3.06.06-1.29-1.53-2.65-2.73-4.54-.19.5-.05.03.16-.41.71-1.49,1.02-3.29-.83-3.68-1.27-.27-3.11.54-4.18,1.46-1.03.89-1.39,2.54-2.04,3.86-2.16.65-4.15,1.63-5,3.23-.4.76,1.39,2.68,2.3,4.27-.86,2.15-1.91,4.58-2.8,7.06-.81,2.25-.15,4.14,2.31,4.52,2.26.35,4.68.41,6.9-.06,1.1-.23,2.47-1.83,2.63-2.97.11-.79-1.52-2-2.58-2.71-.64-.43-1.68-.27-2.76-.41,1.08-2.34,1.97-4.29,3.01-6.56ZM155.25,22.31c.18-.74,2.17-3.11-.77-4.02-4.22-1.31-4.37,2.99-6.28,4.89-1.86,1.11-3.76,2.33-4.86,4.05-.36.56,1.36,2.45,2.34,4.09-.27.66-.71,1.93-1.28,3.12-4.22,8.79-.29,8.79,6.18,8.57.33-.01.78.11.98-.06,1.16-.99,2.89-1.87,3.24-3.12.58-2.07-1.16-2.78-3.07-2.83-.71-.02-1.41-.2-2.32-.35,1.08-2.33,1.98-4.28,2.9-6.28,2.24-.68,5.58.11,5.76-3.39.06-1.17-1.41-2.43-2.82-4.65ZM133.26,42.95c1.66,0,3.49.44,4.93-.13,1.26-.5,2.74-2.01,2.96-3.27.36-2.09-1.46-2.6-3.34-2.57-2.16.03-4.36.16-6.46-.2-.87-.15-2.34-1.77-2.17-2.19.63-1.58,1.66-3.08,2.87-4.28.33-.32,2.47.31,2.68.91.72,1.99,2.22,2.3,3.48,1.43,1.03-.71,1.86-2.35,1.96-3.64.21-2.87-2.57-4.93-6.21-5.02-5.44-.12-10.64,5.2-10.75,11-.11,5.53,3,8,10.04,7.95Z"/>
      <path class="cls-2" d="M18.93,19.82c3.64-4.22,7.2-8.32,12.78-9.29,2.34-.41,5.06-.43,7.23.4,5.45,2.07,6.34,9.16,1.42,12.28-2.64,1.67-6.14,2.18-9.33,2.71-2.58.42-5.29.09-8.1.09-2.37,3.41-3.36,7.22-3.43,11.21-.08,4.72,1.88,6.64,6.65,6.76,4.32.11,8.64.04,12.96.02,1.87,0,3.99-.15,4.09,2.41.1,2.43-1.62,3.54-3.9,3.56-5.48.06-10.98.24-16.45-.04-5.49-.29-9.69-4.4-9.8-10.07-.09-4.38.96-8.79,1.57-13.76-.96-.42-4.41.14-3.54-3.23,1.07-4.1,4.83-2.47,7.85-3.05ZM36.97,17.67c-3.21-2.64-5.44-2.18-9.59,1.96,6.6.81,6.93.74,9.59-1.96Z"/>
      <path class="cls-3" d="M117.24,36.59c.41.14.71.33,1.03.34,1.98.09,4.47-.15,4.4,2.66-.06,2.57-2.07,3.56-4.57,3.42-.5-.03-1.02.11-1.49-.02-2.91-.8-5.76-.36-8.7-.07-5.05.5-7.76-2.37-7.57-7.39.28-7.64,6.5-12.3,14.09-10.62.68.15,1.45-.2,2.18-.23,1.21-.05,3.26-.41,3.47.06.53,1.12.53,2.74.15,3.99-.8,2.68-1.98,5.25-3,7.87ZM113.57,29.93c-3.86-.9-6.23.06-7.04,2.94-.32,1.15.45,2.61.72,3.93,1.32-.37,3.18-.32,3.84-1.19,1.19-1.58,1.67-3.7,2.48-5.68Z"/>
      <path class="cls-3" d="M75.09,30.69c-3.57-1.36-4.92.49-5.97,2.61-1.18,2.37-2.11,4.87-3.28,7.25-.88,1.79-2.38,3.1-4.41,2.24-2.35-.99-1.49-2.88-.75-4.65,1.54-3.68,2.93-7.41,4.47-11.09,1-2.4,2.4-3.89,5.39-2.51.96.44,2.4-.33,3.59-.2,2.05.22,4.41.19,6.02,1.23,2.1,1.36,1.37,3.86.6,5.94-.63,1.69-1.39,3.33-2.09,4.98.43.21.58.3.74.35,1.89.48,4.72-.62,4.88,2.79.11,2.33-1.59,3.33-5.57,3.38-.67,0-1.33.02-2,0-4.72-.14-5.66-1.45-4.09-5.79.72-2,1.5-3.97,2.47-6.52Z"/>
      <path class="cls-7" d="M48.07,43c-5.79.03-8.8-2.62-8.74-7.7.06-5.96,5.11-11.17,10.98-11.31,4.78-.12,8.39,3.15,8.41,7.84.01,5.12-3.6,11.84-10.65,11.16ZM50.76,29.97c-3.03.07-5.59,2.45-5.51,4.45.08,2.12,1.54,2.69,3.39,2.6,2.55-.12,4.05-1.76,4.12-4.01.04-1.13-1.49-2.31-2-3.03Z"/>
      <path class="cls-7" d="M95.42,30.1c-1.04,2.27-1.94,4.21-3.01,6.56,1.08.14,2.12-.02,2.76.41,1.06.71,2.69,1.92,2.58,2.71-.16,1.13-1.53,2.74-2.63,2.97-2.22.46-4.64.41-6.9.06-2.46-.38-3.12-2.27-2.31-4.52.89-2.48,1.94-4.91,2.8-7.06-.91-1.59-2.7-3.52-2.3-4.27.85-1.6,2.85-2.58,5-3.23.65-1.32,1.02-2.97,2.04-3.86,1.07-.92,2.91-1.73,4.18-1.46,1.86.39,1.55,2.19.83,3.68-.21.44-.35.92-.16.41,1.2,1.89,2.79,3.26,2.73,4.54-.15,3.12-2.96,2.97-5.62,3.06Z"/>
      <path class="cls-3" d="M155.25,22.31c1.41,2.22,2.88,3.48,2.82,4.65-.19,3.5-3.52,2.71-5.76,3.39-.92,2-1.83,3.95-2.9,6.28.92.14,1.62.33,2.32.35,1.91.05,3.65.76,3.07,2.83-.35,1.25-2.08,2.13-3.24,3.12-.2.17-.65.05-.98.06-6.47.22-10.4.22-6.18-8.57.57-1.2,1.01-2.46,1.28-3.12-.98-1.63-2.7-3.52-2.34-4.09,1.1-1.72,3-2.93,4.86-4.05,1.91-1.89,2.06-6.19,6.28-4.89,2.94.91.95,3.28.77,4.02Z"/>
      <path class="cls-4" d="M133.26,42.95c-7.04.05-10.15-2.42-10.04-7.95.11-5.81,5.31-11.13,10.75-11,3.63.08,6.42,2.15,6.21,5.02-.1,1.29-.93,2.93-1.96,3.64-1.26.87-2.76.56-3.48-1.43-.22-.59-2.35-1.23-2.68-.91-1.21,1.19-2.25,2.7-2.87,4.28-.16.41,1.3,2.03,2.17,2.19,2.1.36,4.3.24,6.46.2,1.88-.03,3.7.48,3.34,2.57-.22,1.26-1.69,2.77-2.96,3.27-1.44.57-3.27.13-4.93.13Z"/>
      <path class="cls-6" d="M36.97,17.67c-2.66,2.7-2.99,2.76-9.59,1.96,4.15-4.14,6.38-4.59,9.59-1.96Z"/>
      <path class="cls-5" d="M113.57,29.93c-.81,1.98-1.29,4.1-2.48,5.68-.65.87-2.52.82-3.84,1.19-.27-1.32-1.05-2.78-.72-3.93.81-2.88,3.18-3.84,7.04-2.94Z"/>
      <path class="cls-6" d="M50.76,29.97c.51.72,2.04,1.9,2,3.03-.08,2.25-1.58,3.89-4.12,4.01-1.85.09-3.32-.47-3.39-2.6-.07-2,2.49-4.38,5.51-4.45Z"/>
    </g>
  </g>
</svg>