<?xml version="1.0" encoding="UTF-8"?>
<svg id="Layer_2" data-name="Layer 2" xmlns="http://www.w3.org/2000/svg" viewBox="0 0 322 69">
  <defs>
    <style>
      .cls-1 {
        fill: #080a0b;
      }

      .cls-1, .cls-2, .cls-3, .cls-4, .cls-5, .cls-6, .cls-7, .cls-8, .cls-9, .cls-10, .cls-11, .cls-12, .cls-13 {
        stroke-width: 0px;
      }

      .cls-2 {
        fill: #030303;
      }

      .cls-3 {
        fill: #080a0a;
      }

      .cls-4 {
        fill: #2e363a;
      }

      .cls-6 {
        fill: #cbeffe;
      }

      .cls-7 {
        fill: #cbeefd;
      }

      .cls-8 {
        fill: #030404;
      }

      .cls-9 {
        fill: #caeefd;
      }

      .cls-10 {
        fill: #caedfc;
      }

      .cls-11 {
        fill: #08090a;
      }

      .cls-12 {
        fill: #e8e8e8;
      }

      .cls-13 {
        fill: #c9edfc;
      }
    </style>
  </defs>
  <g id="Play_the_Game_Image" data-name="Play the Game Image">
    <g>
      <path class="cls-5" d="M116.83,42.04c.59,4.5.53,9.57-3.88,11.48-5.03,2.18-7.87,5.89-11.19,9.71-4.23,4.87-12.07,6-17.98,3.48-6.17-2.63-9.33-8.07-9.37-16.17-3.62-1.27-7.24-1.96-11.04-.6-.89.32-1.98.07-2.98.07-9.02,0-11.94-2.49-13.75-12.48-1.61,3.5-2.9,6.37-4.26,9.22-3.22,6.74-7.93,11.62-15.5,13.66-9.43,2.54-23.55-2.94-23.11-18.87.31-11.15,8.35-20.65,19.69-23.48,1.61-.4,3.24-.72,5.25-1.16-1.03-3.92-.38-7.55,2.36-10.45,2.83-3,6.6-3.61,10.56-3.44,3.98.17,7.99.06,11.92.59,2.38.32,4.63,1.62,7.2,2.58,5.31-3.73,9.07-4.17,13.2-1.32,3.48,2.4,4.42,5.87,3.06,11.88,4.85.44,9.67.88,15.42,1.41,2.12-1.1,5.21-1.52,8.64-.28,1.29.47,3.04-.07,4.51-.44,5.46-1.38,9.76.97,11.49,6.42.03,1.5.05,3,.08,4.5-1,3.26-2.01,6.53-3.1,10.08.82,1.06,1.81,2.35,2.79,3.63ZM86.98,43.08c.02.27.01.55-.01.82-1.06.79-2.26,1.46-3.16,2.4-2.71,2.84-3.22,6.85-1.45,10.17,1.8,3.36,5.93,5.28,9.78,4.39,3.08-.71,5.41-2.52,6.9-5.32,1.15-2.16,2.22-4.37,3.34-6.6,1.73,0,3.44.45,4.66-.13,1.25-.59,2.56-2.06,2.86-3.37.42-1.82-1.2-2.45-2.91-2.46-.8,0-1.6-.14-2.64-.24,1.96-4.68,3.82-9.12,5.69-13.56.71-1.69,1.91-3.61-.38-4.78-2.57-1.31-3.98.43-4.92,2.64-.97,2.3-1.85,4.64-2.94,6.88-1.1,2.26-2.72,3.72-5.96,2.5,1.19-3.06,2.45-5.9,3.36-8.86.27-.88-.16-2.74-.72-2.95-1.02-.38-2.57-.2-3.54.36-.88.51-1.42,1.79-1.86,2.83-1.32,3.17-2.51,6.39-3.72,9.52-1.8-.22-3.43-.42-5.22-.64,1.26-3.09,2.6-5.96,3.61-8.94.92-2.72-.62-4.19-3.4-3.55-1.02.23-2.12.83-3.04.62-6.85-1.56-12.15,1.68-13.66,8.5-1.6,7.2,2.96,11.41,10.04,9.26.73-.22,1.47-.8,2.15-.72,2.4.29,4.76.8,7.14,1.22ZM41.01,16.25c-3.13,7.63-6.05,15.04-9.21,22.33-1.11,2.55-2.64,4.98-4.34,7.19-1.64,2.13-4.13,2.98-6.7,1.84-2.81-1.25-3.47-3.85-3.16-6.68.43-3.95,2.56-6.9,6.09-8.52,2.21-1.02,4.72-1.47,7.13-1.95,2.1-.42,4.16-.99,3.87-3.52-.27-2.4-2.32-2.89-4.51-2.95-7.86-.2-16.4,5.77-18.77,13.21-1.94,6.07-.11,12.34,4.4,15.14,4.98,3.09,11.93,2.12,16.31-2.71,1.96-2.17,3.48-4.86,4.72-7.54,2.41-5.23,4.48-10.62,6.74-16.08,1.89,0,3.68.41,5.16-.09,2.59-.87,5.49-1.78,7.35-3.6,3.41-3.34,2.58-9.46-1.3-11.09-5.54-2.33-11.45-1.28-17.2-.77-.9.08-2.01,2.06-2.26,3.32-.11.55,1.63,1.66,2.7,2.17.79.38,1.85.22,2.99.32ZM61.03,36.55c1.96-4.62,3.9-9.18,5.83-13.75,1.29-3.06,2.67-6.09,3.73-9.23.29-.86-.13-2.72-.7-2.95-1.01-.41-2.64-.3-3.53.3-.99.67-1.57,2.08-2.09,3.27-1.46,3.34-2.81,6.74-4.18,10.12-1.81,4.46-3.69,8.89-5.36,13.4-1.29,3.51-.26,4.98,3.38,5.27.83.07,1.66.02,2.49.01,3.99-.04,5.7-.97,5.71-3.24.01-3.74-3.33-2.24-5.3-3.21Z"/>
      <path class="cls-5" d="M277.78,47.93c-3.4,2.14-6.7,2.61-10.24,1.18-.72-.29-1.64-.44-2.38-.26-8.27,2.06-16.7.8-25.04.96-3.88.07-7.78-1.33-11.38.5-2.28,3.71-4.18,7.64-6.84,10.96-7.81,9.76-22.97,8.78-29.33-1.68-4.4-7.24-3.09-16.82,3.23-22.85,1.42-1.35,3.12-2.41,5.01-3.85-5.02-2.77-7.1-6.17-6.38-10.78.78-4.99,3.97-7.75,8.82-8.95,1.46-.36,2.94-1.32,4.03-2.39,4.56-4.47,9.87-7.35,16.28-7.73,8.9-.53,14.22,4.1,16.72,14.23,6.38.32,13.06-1.79,19.22,2.37,2.78-1.78,5.69-2.76,9.5-2.28,4.94.62,10.08-.51,15.08-.19,3.63.23,7.19,1.6,11.64,2.66,3.47-2.15,8.14-3.82,13.58-2.13,6.4,1.98,9.87,6.61,9.76,13.3-.03,1.77.1,3.61.53,5.32,1.75,6.96-2.12,13.05-9.25,13.55-4.26.3-8.58-.45-12.88-.62-1.62-.06-3.27.05-4.88.28-4.98.72-9.91,1.2-14.82-1.59ZM219.4,36.78c-1.66.07-3.32.14-4.99.22-5.4.27-10.61,1.1-14.47,5.45-3.32,3.74-3.93,9.33-1.51,13.48,2.2,3.76,7.15,5.87,11.63,4.9,4.24-.91,7-3.71,8.9-7.39,1.73-3.36,3.21-6.85,4.8-10.26,2.34-.14,4.58.06,6.58-.55,1.09-.33,2.37-1.99,2.44-3.12.05-.77-1.73-1.92-2.9-2.43-.99-.43-2.26-.2-3.62-.28.36-1.13.64-2.05.96-2.97.32-.94.82-1.84.99-2.81.57-3.2-1.41-4.82-4.41-3.58-1.37.57-2.55,1.63-3.93,2.16-3.06,1.19-4.32.34-5.3-3.24,3.76-.36,7.6-.43,11.3-1.16,5.08-1,7.86-4.94,7.05-9.21-.74-3.92-4.71-6.42-9.63-5.98-.98.09-1.95.38-2.91.64-5.14,1.37-8.44,5.03-11.42,9.43-1.63,0-3.5-.47-4.88.14-1.24.55-1.96,2.3-2.91,3.51,1.09.75,2.1,1.7,3.3,2.19,1,.4,2.22.26,3.27.36,1.37,7.85,3.96,9.98,11.64,10.49ZM272.98,30.9c-1.16,2.8-2.43,5.45-3.31,8.22-.32,1.01.28,2.31.47,3.48,1.34-.28,2.93-.21,3.95-.94.97-.69,1.4-2.19,1.98-3.37.87-1.79,1.54-3.69,2.52-5.42,1.1-1.93,2.54-3.49,5.75-2.17-1.01,2.59-1.92,5.01-2.9,7.41-.82,2.01-.52,4.09,1.56,4.49,2.69.52,5.6.31,8.35-.09.81-.12,1.91-1.92,1.9-2.94-.01-.87-1.31-1.93-2.28-2.49-.75-.43-1.86-.22-3.09-.31.84-2.11,1.65-3.92,2.3-5.79,1.47-4.22-.9-7.38-5.39-6.92-1.89.19-3.71,1.14-5.42,1.7-1.55-.6-3.04-1.48-4.62-1.7-2.88-.41-5.79,2.37-8.79.03-.21-.16-1.63.64-1.89,1.25-2.12,4.86-4.15,9.76-6.02,14.72-.25.65.38,2.08,1.02,2.49.67.43,2.15.46,2.74,0,1.12-.89,2.03-2.17,2.71-3.45,1.08-2.05,1.74-4.34,2.88-6.35,1.07-1.88,2.5-3.63,5.59-1.84ZM251.19,36.62c1.19-2.92,2.48-5.75,3.47-8.68.31-.93.18-2.5-.42-3.11-.6-.61-2.05-.52-3.12-.49-.86.02-1.79.73-2.57.57-7.75-1.58-13.85,2.88-14.2,10.5-.23,5.09,2.39,8.01,7.44,7.48,2.95-.31,5.74-.43,8.71,0,3.9.57,6.3-.88,6.21-3.18-.15-3.59-3.34-2.32-5.52-3.1ZM301.33,37l.26-1c1.46,0,2.93.09,4.39-.02,3.95-.28,6.05-2.32,6.09-5.78.03-3.3-2.29-5.82-5.88-6.18-3.98-.4-7.15,1.24-9.5,4.36-2.47,3.27-3.28,7.06-1.54,10.78.73,1.55,2.77,3.17,4.44,3.46,3.39.59,6.96.58,10.4.21,1.14-.12,2.71-1.94,2.98-3.21.45-2.14-1.4-2.63-3.25-2.62-2.8.02-5.6,0-8.4,0Z"/>
      <path class="cls-5" d="M117.14,28.33c-.03-1.5-.05-3-.08-4.5.44.46.87.92.81.86,2.09-2.21,4.12-4.39,6.2-6.52.77-.79,1.78-1.36,2.46-2.2,4.12-5.1,8.06-6.11,14-3.49.58.26,1.16.52,1.74.78,4.31-8.81,8.78-11.73,14.62-9.66,5.75,2.04,7.25,6.58,4.87,15.1.9.62,1.84,1.27,2.77,1.91,4.66-3.03,9.49-4.63,15.07-2.83,6.11,1.97,9.52,6.55,9.48,13-.01,1.93.16,3.92.61,5.8,1.64,6.83-2.47,12.93-9.61,13.32-4.26.23-8.57-.46-12.86-.74-.99-.06-2.04-.39-2.94-.14-5.44,1.5-10.78,1.8-16.02-.73-.37-.18-.98-.18-1.34,0-5.93,3-12.31,1.15-18.45,1.56-5.21.35-9.26-2.3-10.7-7.82.36-2.44.58-4.9,1.13-7.3.58-2.53.78-4.81-1.77-6.4ZM151.28,24.52c1.64-3.85,3.28-7.3,4.52-10.88.32-.92-.29-2.59-1.05-3.29-.46-.43-2.17.1-3.05.65-.76.47-1.28,1.51-1.66,2.4-3.55,8.39-7.04,16.8-10.54,25.21-.19.46-.55.97-.47,1.38.18.91.35,2.13.97,2.55.65.44,2.14.49,2.73.03,1.11-.88,2.01-2.15,2.69-3.43,1.17-2.18,1.94-4.59,3.19-6.72,1.11-1.89,2.7-3.36,5.37-1.47-.43,1.21-.76,2.29-1.19,3.33-3.24,7.84-1.8,9.73,6.64,8.71.33-.04.81.07.96-.11.98-1.15,2.47-2.28,2.68-3.59.29-1.78-1.36-2.35-3.07-2.32-.71.01-1.42-.2-2.44-.36.59-1.3,1.01-2.18,1.38-3.09.43-1.08.9-2.15,1.2-3.27.95-3.48-.66-5.89-4.27-6.21-1.28-.11-2.59.25-4.62.48ZM171.45,37l.03-1c1.45,0,2.91.08,4.36-.01,3.99-.26,6.12-2.22,6.22-5.64.1-3.51-2.37-6.02-6.24-6.34-6.74-.55-12.61,6.26-11.34,13.16.62,3.37,2.52,5.41,5.93,5.73,2.96.27,5.97.13,8.96.09,2.37-.03,3.8-1.29,3.68-3.7-.12-2.3-1.98-2.29-3.7-2.29-2.64,0-5.27,0-7.91,0ZM131.39,36.64c1.09-2.33,2.06-4.39,2.99-6.39,2.43-.4,5.14.04,5.77-3.06.49-2.43-1.27-3.08-3.17-3.6.15-.5.23-.98.44-1.4.7-1.45,1.18-3.25-.66-3.74-1.23-.33-3.12.41-4.2,1.3-1.04.86-1.43,2.52-2.1,3.83-2.05.69-4.08,1.63-5.01,3.23-.44.75,1.24,2.74,2.2,4.62-.49,1.2-1.24,3.03-1.97,4.87-2.05,5.16-1.1,6.6,4.37,6.69.5,0,.99,0,1.49,0,2.4.04,5.03.04,5.33-3.06.37-3.77-2.99-2.57-5.46-3.31Z"/>
      <path class="cls-12" d="M117.14,28.33c2.56,1.59,2.35,3.87,1.77,6.4-.55,2.39-.77,4.86-1.13,7.3,0,0-.48.05-.48.05l-.48-.03c-.99-1.28-1.98-2.57-2.79-3.63,1.09-3.56,2.1-6.82,3.1-10.08Z"/>
      <path class="cls-6" d="M86.98,43.08c-2.38-.42-4.75-.93-7.14-1.22-.68-.08-1.42.5-2.15.72-7.07,2.15-11.64-2.06-10.04-9.26,1.51-6.82,6.81-10.05,13.66-8.5.92.21,2.02-.38,3.04-.62,2.78-.64,4.32.83,3.4,3.55-1.01,2.98-2.34,5.85-3.61,8.94,1.79.22,3.42.42,5.22.64,1.21-3.13,2.41-6.35,3.72-9.52.43-1.04.98-2.32,1.86-2.83.97-.56,2.52-.74,3.54-.36.56.21.99,2.07.72,2.95-.91,2.95-2.17,5.8-3.36,8.86,3.25,1.22,4.86-.25,5.96-2.5,1.09-2.24,1.97-4.58,2.94-6.88.94-2.21,2.35-3.95,4.92-2.64,2.3,1.17,1.1,3.09.38,4.78-1.87,4.43-3.73,8.88-5.69,13.56,1.05.1,1.84.24,2.64.24,1.71,0,3.33.63,2.91,2.46-.3,1.31-1.62,2.78-2.86,3.37-1.22.58-2.93.13-4.66.13-1.13,2.23-2.19,4.44-3.34,6.6-1.49,2.79-3.82,4.61-6.9,5.32-3.85.89-7.98-1.03-9.78-4.39-1.77-3.32-1.26-7.33,1.45-10.17.9-.95,2.1-1.61,3.16-2.4,1.82-.35,3.64-.7,5.96-1.14-1.34-.98-2.23-1.63-3.09-2.26-1.02.92-1.94,1.75-2.87,2.58ZM80.77,29.85c-4.28-.77-6.97.63-7.47,3.59-.18,1.05.39,2.89,1.15,3.25.86.42,2.85-.02,3.42-.78,1.22-1.63,1.83-3.71,2.9-6.05ZM96.12,49.89c-.21-.34-.42-.69-.64-1.03-1.95.17-3.96.11-5.84.57-1.73.43-3.02,1.83-2.24,3.74.84,2.07,2.83,2.53,4.52,1.29,1.63-1.2,2.81-3.02,4.19-4.57Z"/>
      <path class="cls-7" d="M41.01,16.25c-1.14-.1-2.2.07-2.99-.32-1.06-.51-2.8-1.63-2.7-2.17.25-1.25,1.36-3.24,2.26-3.32,5.74-.51,11.65-1.56,17.2.77,3.88,1.63,4.71,7.76,1.3,11.09-1.86,1.82-4.77,2.73-7.35,3.6-1.48.5-3.27.09-5.16.09-2.26,5.46-4.33,10.85-6.74,16.08-1.23,2.68-2.76,5.37-4.72,7.54-4.37,4.83-11.32,5.8-16.31,2.71-4.51-2.8-6.33-9.07-4.4-15.14,2.37-7.44,10.91-13.41,18.77-13.21,2.19.06,4.24.55,4.51,2.95.29,2.53-1.77,3.1-3.87,3.52-2.42.48-4.92.93-7.13,1.95-3.53,1.62-5.66,4.57-6.09,8.52-.31,2.84.35,5.44,3.16,6.68,2.57,1.14,5.06.29,6.7-1.84,1.7-2.21,3.23-4.64,4.34-7.19,3.17-7.29,6.09-14.69,9.21-22.33ZM45.86,18.63c.33.62.66,1.25.99,1.87,1.56-.76,3.12-1.52,4.68-2.28-.46-.74-1.24-2.15-1.32-2.11-1.5.74-2.92,1.65-4.36,2.52Z"/>
      <path class="cls-10" d="M61.03,36.55c1.97.97,5.31-.53,5.3,3.21,0,2.28-1.72,3.21-5.71,3.24-.83,0-1.67.06-2.49-.01-3.64-.29-4.68-1.76-3.38-5.27,1.66-4.51,3.55-8.94,5.36-13.4,1.37-3.38,2.72-6.78,4.18-10.12.52-1.19,1.1-2.6,2.09-3.27.89-.6,2.52-.71,3.53-.3.57.23.99,2.09.7,2.95-1.07,3.14-2.45,6.17-3.73,9.23-1.92,4.57-3.87,9.14-5.83,13.75Z"/>
      <path class="cls-4" d="M86.98,43.08c.92-.83,1.84-1.66,2.87-2.58.86.63,1.74,1.28,3.09,2.26-2.32.44-4.14.79-5.96,1.14.02-.27.03-.54.01-.82Z"/>
      <path class="cls-6" d="M219.4,36.78c-7.67-.51-10.27-2.64-11.64-10.49-1.05-.09-2.27.05-3.27-.36-1.2-.49-2.21-1.44-3.31-2.19.95-1.22,1.66-2.96,2.91-3.51,1.38-.61,3.25-.14,4.88-.14,2.98-4.4,6.28-8.06,11.42-9.43.96-.26,1.93-.55,2.91-.64,4.92-.44,8.89,2.06,9.63,5.98.8,4.27-1.98,8.21-7.05,9.21-3.7.73-7.54.8-11.3,1.16.98,3.58,2.24,4.43,5.3,3.24,1.38-.54,2.55-1.6,3.93-2.16,3-1.24,4.98.38,4.41,3.58-.17.96-.66,1.87-.99,2.81-.31.92-.6,1.85-.96,2.97,1.35.07,2.63-.16,3.62.28,1.17.51,2.94,1.66,2.9,2.43-.07,1.13-1.34,2.79-2.44,3.12-2,.6-4.25.4-6.58.55-1.58,3.41-3.07,6.9-4.8,10.26-1.89,3.68-4.66,6.48-8.9,7.39-4.48.97-9.43-1.14-11.63-4.9-2.42-4.14-1.81-9.73,1.51-13.48,3.86-4.35,9.06-5.18,14.47-5.45,1.66-.08,3.32-.15,4.99-.22ZM217.12,43.1c-4.98-.19-8.73.23-11.71,3.12-2.39,2.31-2.53,5.53-.49,7.56,2.07,2.05,5.14,1.72,7.23-1.32,1.85-2.69,3.11-5.79,4.97-9.36ZM216.71,19.82q7.72.41,10.04-2.42c-3.71-2.22-5.16-1.93-10.04,2.42Z"/>
      <path class="cls-9" d="M272.98,30.9c-3.1-1.78-4.53-.03-5.59,1.84-1.14,2.01-1.8,4.3-2.88,6.35-.68,1.29-1.59,2.56-2.71,3.45-.59.47-2.07.44-2.74,0-.64-.42-1.26-1.84-1.02-2.49,1.87-4.96,3.91-9.86,6.02-14.72.27-.61,1.69-1.41,1.89-1.25,3.01,2.34,5.91-.44,8.79-.03,1.58.22,3.06,1.11,4.62,1.7,1.71-.56,3.53-1.51,5.42-1.7,4.48-.46,6.85,2.7,5.39,6.92-.65,1.87-1.45,3.68-2.3,5.79,1.22.09,2.34-.12,3.09.31.97.56,2.27,1.63,2.28,2.49.02,1.02-1.09,2.82-1.9,2.94-2.75.39-5.65.6-8.35.09-2.09-.4-2.39-2.48-1.56-4.49.98-2.39,1.89-4.82,2.9-7.41-3.21-1.33-4.65.24-5.75,2.17-.98,1.73-1.65,3.63-2.52,5.42-.58,1.19-1.01,2.68-1.98,3.37-1.02.73-2.61.66-3.95.94-.18-1.17-.79-2.47-.47-3.48.88-2.77,2.15-5.42,3.31-8.22Z"/>
      <path class="cls-9" d="M251.19,36.62c2.18.78,5.37-.49,5.52,3.1.09,2.3-2.3,3.76-6.21,3.18-2.97-.44-5.75-.32-8.71,0-5.05.53-7.67-2.39-7.44-7.48.35-7.62,6.45-12.08,14.2-10.5.78.16,1.7-.55,2.57-.57,1.07-.03,2.52-.12,3.12.49.6.61.73,2.18.42,3.11-.99,2.93-2.28,5.76-3.47,8.68ZM247.75,29.65c-4.35-.41-6.77.8-7.38,3.49-.25,1.09.45,2.39.71,3.59,1.34-.3,3.23-.16,3.89-.99,1.23-1.57,1.75-3.7,2.78-6.1Z"/>
      <path class="cls-13" d="M301.33,37c2.8,0,5.6.01,8.4,0,1.85-.01,3.7.48,3.25,2.62-.27,1.27-1.84,3.09-2.98,3.21-3.43.36-7.01.38-10.4-.21-1.67-.29-3.72-1.9-4.44-3.46-1.74-3.71-.93-7.5,1.54-10.78,2.35-3.12,5.52-4.76,9.5-4.36,3.59.36,5.91,2.88,5.88,6.18-.04,3.46-2.14,5.49-6.09,5.78-1.46.1-2.92.02-4.39.02l-.26,1Z"/>
      <path class="cls-9" d="M151.28,24.52c2.03-.23,3.34-.59,4.62-.48,3.61.32,5.22,2.73,4.27,6.21-.3,1.11-.77,2.19-1.2,3.27-.37.91-.79,1.79-1.38,3.09,1.01.16,1.73.38,2.44.36,1.7-.03,3.36.54,3.07,2.32-.22,1.31-1.7,2.44-2.68,3.59-.15.18-.64.07-.96.11-8.44,1.02-9.88-.87-6.64-8.71.43-1.04.76-2.12,1.19-3.33-2.67-1.9-4.26-.43-5.37,1.47-1.25,2.13-2.02,4.54-3.19,6.72-.68,1.27-1.58,2.55-2.69,3.43-.59.46-2.07.42-2.73-.03-.63-.42-.79-1.64-.97-2.55-.08-.42.28-.93.47-1.38,3.5-8.41,7-16.82,10.54-25.21.38-.89.9-1.92,1.66-2.4.87-.54,2.59-1.07,3.05-.65.76.71,1.37,2.38,1.05,3.29-1.25,3.58-2.88,7.03-4.52,10.88Z"/>
      <path class="cls-10" d="M171.45,37c2.64,0,5.27,0,7.91,0,1.72,0,3.58,0,3.7,2.29.13,2.41-1.3,3.67-3.68,3.7-2.99.04-6,.18-8.96-.09-3.41-.31-5.31-2.36-5.93-5.73-1.28-6.9,4.59-13.71,11.34-13.16,3.86.31,6.34,2.83,6.24,6.34-.1,3.42-2.23,5.39-6.22,5.64-1.45.09-2.91.01-4.36.01l-.03,1Z"/>
      <path class="cls-9" d="M131.39,36.64c2.47.74,5.83-.47,5.46,3.31-.3,3.09-2.94,3.1-5.33,3.06-.5,0-.99,0-1.49,0-5.47-.09-6.41-1.53-4.37-6.69.73-1.84,1.48-3.68,1.97-4.87-.95-1.88-2.63-3.87-2.2-4.62.93-1.59,2.96-2.54,5.01-3.23.67-1.31,1.06-2.97,2.1-3.83,1.08-.89,2.97-1.63,4.2-1.3,1.84.49,1.36,2.29.66,3.74-.2.42-.28.9-.44,1.4,1.9.51,3.66,1.16,3.17,3.6-.63,3.1-3.33,2.66-5.77,3.06-.93,1.99-1.9,4.06-2.99,6.39Z"/>
      <path class="cls-11" d="M80.77,29.85c-1.07,2.35-1.68,4.43-2.9,6.05-.57.76-2.56,1.2-3.42.78-.76-.37-1.33-2.2-1.15-3.25.5-2.96,3.2-4.35,7.47-3.59Z"/>
      <path class="cls-3" d="M96.12,49.89c-1.38,1.55-2.56,3.37-4.19,4.57-1.69,1.24-3.68.77-4.52-1.29-.78-1.91.51-3.31,2.24-3.74,1.88-.46,3.89-.4,5.84-.57.21.34.42.69.64,1.03Z"/>
      <path class="cls-8" d="M45.86,18.63c1.44-.87,2.86-1.78,4.36-2.52.07-.04.86,1.37,1.32,2.11-1.56.76-3.12,1.52-4.68,2.28-.33-.62-.66-1.25-.99-1.87Z"/>
      <path class="cls-2" d="M217.12,43.1c-1.86,3.56-3.12,6.66-4.97,9.36-2.09,3.04-5.16,3.37-7.23,1.32-2.05-2.03-1.91-5.25.49-7.56,2.98-2.89,6.73-3.31,11.71-3.12Z"/>
      <path class="cls-1" d="M216.71,19.82c4.88-4.34,6.33-4.64,10.04-2.42q-2.32,2.83-10.04,2.42Z"/>
      <path class="cls-11" d="M247.75,29.65c-1.03,2.4-1.55,4.53-2.78,6.1-.66.83-2.55.69-3.89.99-.27-1.2-.96-2.5-.71-3.59.61-2.7,3.02-3.91,7.38-3.49Z"/>
    </g>
  </g>
</svg>